<?xml version="1.0" encoding="UTF-8" standalone="no"?>
<!-- Created with Inkscape (http://www.inkscape.org/) -->

<svg
   width="210mm"
   height="297mm"
   viewBox="0 0 210 297"
   version="1.1"
   id="svg1"
   inkscape:version="1.3 (0e150ed6c4, 2023-07-21)"
   sodipodi:docname="nemo_modernist.svg"
   xmlns:inkscape="http://www.inkscape.org/namespaces/inkscape"
   xmlns:sodipodi="http://sodipodi.sourceforge.net/DTD/sodipodi-0.dtd"
   xmlns="http://www.w3.org/2000/svg"
   xmlns:svg="http://www.w3.org/2000/svg">
  <sodipodi:namedview
     id="namedview1"
     pagecolor="#505050"
     bordercolor="#eeeeee"
     borderopacity="1"
     inkscape:showpageshadow="0"
     inkscape:pageopacity="0"
     inkscape:pagecheckerboard="0"
     inkscape:deskcolor="#505050"
     inkscape:document-units="mm"
     inkscape:zoom="1.1012026"
     inkscape:cx="296.03998"
     inkscape:cy="495.36751"
     inkscape:window-width="1920"
     inkscape:window-height="991"
     inkscape:window-x="-9"
     inkscape:window-y="-9"
     inkscape:window-maximized="1"
     inkscape:current-layer="layer1" />
  <defs
     id="defs1" />
  <g
     inkscape:label="Layer 1"
     inkscape:groupmode="layer"
     id="layer1">
    <path
       id="path5"
       style="font-size:3.175px;font-family:'Bauhaus 93';-inkscape-font-specification:'Bauhaus 93, ';letter-spacing:-0.203729px;stroke-width:0;stroke-dasharray:none;stroke:#000000;fill:#000000;fill-opacity:1;stroke-opacity:1"
       d="m 151.53278,88.952031 c -6.52232,0 -12.04288,2.130598 -16.5616,6.391587 -4.49743,4.260782 -6.74614,9.464262 -6.74614,15.610022 0,6.08429 2.23806,11.27746 6.71416,15.57949 4.47611,4.30223 9.87942,6.45304 16.20993,6.45304 6.37312,0 11.78709,-2.1407 16.24189,-6.42231 4.45479,-4.28162 6.68219,-9.48509 6.68219,-15.61022 0,-6.02285 -2.21674,-11.19539 -6.65022,-15.518042 -4.41218,-4.322241 -9.70892,-6.483567 -15.89021,-6.483567 z M 151.14919,101.305 c 2.68565,0 4.95571,0.94249 6.81007,2.82705 1.8757,1.86435 2.81356,4.13807 2.81356,6.82159 0,2.68371 -0.93774,4.96795 -2.81356,6.85272 -1.85445,1.86435 -4.12442,2.79611 -6.81007,2.79611 -2.64303,0 -4.91308,-0.94248 -6.8101,-2.82684 -1.87569,-1.88498 -2.81354,-4.1589 -2.81354,-6.82199 0,-2.66309 0.93795,-4.93703 2.81354,-6.82159 1.87569,-1.88497 4.14575,-2.82705 6.8101,-2.82705 z"
       inkscape:export-filename="nemo_modernist.svg"
       inkscape:export-xdpi="96"
       inkscape:export-ydpi="96" />
    <path
       style="font-size:3.175px;font-family:'Bauhaus 93';-inkscape-font-specification:'Bauhaus 93, ';letter-spacing:-0.203729px;stroke-width:0;stroke-dasharray:none;stroke:#000000;fill:#000000;fill-opacity:1;stroke-opacity:1"
       d="m 181.42801,117.57249 q 3.13328,0 5.37133,2.27001 2.27003,2.27002 2.27003,5.40331 0,3.13311 -2.23804,5.33919 -2.23808,2.1741 -5.40332,2.1741 -3.29314,0 -5.43528,-2.11017 -2.11017,-2.14194 -2.11017,-5.43508 0,-3.19723 2.20608,-5.40331 2.20609,-2.23805 5.33937,-2.23805 z"
       id="path7" />
    <path
       style="font-size:3.175px;font-family:'Bauhaus 93';-inkscape-font-specification:'Bauhaus 93, ';letter-spacing:-0.203729px;stroke-width:0;stroke:#000000;stroke-dasharray:none;fill:#000000;fill-opacity:1;stroke-opacity:1"
       d="m 80.981911,131.93851 v -30.23713 q 0,-5.623571 3.548906,-9.187903 3.548927,-3.564539 9.208001,-3.564539 6.714172,0 10.327032,5.930654 2.20608,-3.195793 4.73188,-4.547859 2.52582,-1.383826 6.2346,-1.383826 5.88287,0 9.01616,3.564332 3.13328,3.564539 3.13328,10.263411 v 29.16162 h -12.98072 v -27.28716 q 0,-2.02728 -0.35163,-2.67341 -0.31967,-0.67644 -1.34279,-0.67644 -1.91838,0 -1.91838,3.13413 v 27.50246 H 97.607518 v -27.28716 q 0,-1.9984 -0.35163,-2.6734 -0.35162,-0.67644 -1.37475,-0.67644 -1.91838,0 -1.91838,3.34964 v 27.28716 z"
       id="path4" />
    <path
       style="font-size:3.175px;font-family:'Bauhaus 93';-inkscape-font-specification:'Bauhaus 93, ';letter-spacing:-0.203729px;stroke-width:0;stroke:#000000;stroke-dasharray:none;fill:#000000;fill-opacity:1;stroke-opacity:1"
       d="m 77.797894,106.3107 v 9.34135 h -8.472646 q -1.726586,0 -2.46185,0.49083 -0.703462,0.49084 -0.703462,1.65812 0,1.32196 0.735428,1.75298 0.735429,0.40009 3.005399,0.40009 H 78.62918 V 131.9383 H 68.43003 q -7.193753,0 -10.99845,-3.28778 -3.804697,-3.31891 -3.804697,-9.55685 v -16.4397 q 0,-6.022837 3.580893,-9.341546 3.612859,-3.318708 10.135197,-3.318708 H 78.62918 v 12.045474 h -8.280808 q -3.357089,0 -3.357089,2.08956 0,1.22916 0.799361,1.71999 0.799361,0.46196 2.845526,0.46196 z"
       id="path3" />
    <path
       style="font-size:3.175px;font-family:'Bauhaus 93';-inkscape-font-specification:'Bauhaus 93, ';letter-spacing:-0.203729px;stroke-width:0;stroke:#000000;stroke-dasharray:none;fill:#000000;fill-opacity:1;stroke-opacity:1"
       d="M 19.269961,131.93851 V 104.7128 q 0,-7.159804 4.444145,-11.461833 4.476111,-4.302029 11.893667,-4.302029 7.385591,0 11.286187,4.179114 3.932582,4.179114 3.932582,12.014958 v 26.7955 H 37.845818 v -26.7955 q 0,-3.84131 -2.845526,-3.84131 -2.749607,0 -2.749607,3.84131 v 26.7955 z"
       id="path10" />
    <g
       id="rect3"
       style="stroke:none;fill:#000000;fill-opacity:1;stroke-width:0;stroke-dasharray:none">
      <path
         style="color:#000000;fill:#000000;stroke-linecap:round;stroke-linejoin:round;stroke:none;fill-opacity:1;stroke-width:0;stroke-dasharray:none"
         d="M 21.096447,136.13597 H 171.62103 v 3.34387 l -141.51476,-0.0825 v 7.27303 l 156.71812,0.51353 v 3.25086 H 21.096447 Z"
         id="path8" />
      <path
         style="color:#000000;fill:#000000;stroke-linecap:round;stroke-linejoin:round;stroke:none;fill-opacity:1;stroke-width:0;stroke-dasharray:none"
         d="m 21.095703,134.44531 a 1.6911691,1.6911691 0 0 0 -1.689453,1.69141 v 14.29883 a 1.6911691,1.6911691 0 0 0 1.689453,1.68945 H 186.82422 a 1.6911691,1.6911691 0 0 0 1.6914,-1.68945 v -3.25196 a 1.6911691,1.6911691 0 0 0 -1.68554,-1.6914 L 31.796875,144.98437 v -3.89453 l 139.822265,0.0801 a 1.6911691,1.6911691 0 0 0 1.69336,-1.68945 v -3.34375 a 1.6911691,1.6911691 0 0 0 -1.69141,-1.69141 z m 1.691406,3.38086 h 7.03125 a 1.6911691,1.6911691 0 0 0 -1.402343,1.57031 v 7.27344 a 1.6911691,1.6911691 0 0 0 1.685546,1.69141 L 146.9707,148.74414 H 22.787109 Z"
         id="path9" />
    </g>
  </g>
</svg>
