  0
SECTION
  2
HEADER
  9
$ACADVER
  1
AC1014
  9
$HANDSEED
  5
FFFF
  9
$INSUNITS
 70
     4
  9
$MEASUREMENT
 70
     1
  0
ENDSEC
  0
SECTION
  2
TABLES
  0
TABLE
  2
VPORT
  5
8
330
0
100
AcDbSymbolTable
 70
     4
  0
VPORT
  5
2E
330
8
100
AcDbSymbolTableRecord
100
AcDbViewportTableRecord
  2
*ACTIVE
 70
     0
 10
0.0
 20
0.0
 11
1.0
 21
1.0
 12
210.0
 22
148.5
 13
0.0
 23
0.0
 14
10.0
 24
10.0
 15
10.0
 25
10.0
 16
0.0
 26
0.0
 36
1.0
 17
0.0
 27
0.0
 37
0.0
 40
341.0
 41
1.24
 42
50.0
 43
0.0
 44
0.0
 50
0.0
 51
0.0
 71
     0
 72
   100
 73
     1
 74
     3
 75
     0
 76
     0
 77
     0
 78
     0
  0
ENDTAB
  0
TABLE
  2
LTYPE
  5
5
330
0
100
AcDbSymbolTable
 70
     1
  0
LTYPE
  5
14
330
5
100
AcDbSymbolTableRecord
100
AcDbLinetypeTableRecord
  2
BYBLOCK
 70
     0
  3

 72
    65
 73
     0
 40
0.0
  0
LTYPE
  5
15
330
5
100
AcDbSymbolTableRecord
100
AcDbLinetypeTableRecord
  2
BYLAYER
 70
     0
  3

 72
    65
 73
     0
 40
0.0
  0
LTYPE
  5
16
330
5
100
AcDbSymbolTableRecord
100
AcDbLinetypeTableRecord
  2
CONTINUOUS
 70
     0
  3
Solid line
 72
    65
 73
     0
 40
0.0
  0
ENDTAB
  0
TABLE
  2
LAYER
  5
2
100
AcDbSymbolTable
 70
2
  0
LAYER
  5
50
100
AcDbSymbolTableRecord
100
AcDbLayerTableRecord
  2
0
 70
0
  6
CONTINUOUS
  0
LAYER
  5
51
100
AcDbSymbolTableRecord
100
AcDbLayerTableRecord
  2
Layer_1
 70
0
  6
CONTINUOUS
  0
ENDTAB
  0
TABLE
  2
STYLE
  5
3
330
0
100
AcDbSymbolTable
 70
     1
  0
STYLE
  5
11
330
3
100
AcDbSymbolTableRecord
100
AcDbTextStyleTableRecord
  2
STANDARD
 70
     0
 40
0.0
 41
1.0
 50
0.0
 71
     0
 42
2.5
  3
txt
  4

  0
ENDTAB
  0
TABLE
  2
VIEW
  5
6
330
0
100
AcDbSymbolTable
 70
     0
  0
ENDTAB
  0
TABLE
  2
UCS
  5
7
330
0
100
AcDbSymbolTable
 70
     0
  0
ENDTAB
  0
TABLE
  2
APPID
  5
9
330
0
100
AcDbSymbolTable
 70
     2
  0
APPID
  5
12
330
9
100
AcDbSymbolTableRecord
100
AcDbRegAppTableRecord
  2
ACAD
 70
     0
  0
ENDTAB
  0
TABLE
  2
DIMSTYLE
  5
A
330
0
100
AcDbSymbolTable
 70
     1
  0
DIMSTYLE
105
27
330
A
100
AcDbSymbolTableRecord
100
AcDbDimStyleTableRecord
  2
ISO-25
 70
     0
  3

  4

  5

  6

  7

 40
1.0
 41
2.5
 42
0.625
 43
3.75
 44
1.25
 45
0.0
 46
0.0
 47
0.0
 48
0.0
140
2.5
141
2.5
142
0.0
143
0.03937007874016
144
1.0
145
0.0
146
1.0
147
0.625
 71
     0
 72
     0
 73
     0
 74
     0
 75
     0
 76
     0
 77
     1
 78
     8
170
     0
171
     3
172
     1
173
     0
174
     0
175
     0
176
     0
177
     0
178
     0
270
     2
271
     2
272
     2
273
     2
274
     3
340
11
275
     0
280
     0
281
     0
282
     0
283
     0
284
     8
285
     0
286
     0
287
     3
288
     0
  0
ENDTAB
  0
TABLE
  2
BLOCK_RECORD
  5
1
330
0
100
AcDbSymbolTable
 70
     1
  0
BLOCK_RECORD
  5
1F
330
1
100
AcDbSymbolTableRecord
100
AcDbBlockTableRecord
  2
*MODEL_SPACE
  0
BLOCK_RECORD
  5
1B
330
1
100
AcDbSymbolTableRecord
100
AcDbBlockTableRecord
  2
*PAPER_SPACE
  0
ENDTAB
  0
ENDSEC
  0
SECTION
  2
BLOCKS
  0
BLOCK
  5
20
330
1F
100
AcDbEntity
  8
0
100
AcDbBlockBegin
  2
*MODEL_SPACE
 70
     0
 10
0.0
 20
0.0
 30
0.0
  3
*MODEL_SPACE
  1

  0
ENDBLK
  5
21
330
1F
100
AcDbEntity
  8
0
100
AcDbBlockEnd
  0
BLOCK
  5
1C
330
1B
100
AcDbEntity
 67
     1
  8
0
100
AcDbBlockBegin
  2
*PAPER_SPACE
  1

  0
ENDBLK
  5
1D
330
1B
100
AcDbEntity
 67
     1
  8
0
100
AcDbBlockEnd
  0
ENDSEC
  0
SECTION
  2
ENTITIES
  0
SPLINE
  5
100
100
AcDbEntity
  8
Layer_1
 62
7
100
AcDbSpline
 70
8
 71
3
 72
8
 73
4
 74
0
 40
0
 40
0
 40
0
 40
0
 40
1
 40
1
 40
1
 40
1
 10
47.481856
 20
177.530180
 30
0.0
 10
47.165597
 20
177.530180
 30
0.0
 10
46.897912
 20
177.426870
 30
0.0
 10
46.678805
 20
177.220260
 30
0.0
  0
SPLINE
  5
101
100
AcDbEntity
  8
Layer_1
 62
7
100
AcDbSpline
 70
8
 71
3
 72
8
 73
4
 74
0
 40
0
 40
0
 40
0
 40
0
 40
1
 40
1
 40
1
 40
1
 10
46.678805
 20
177.220260
 30
0.0
 10
46.460730
 20
177.013660
 30
0.0
 10
46.351693
 20
176.761350
 30
0.0
 10
46.351693
 20
176.463350
 30
0.0
  0
SPLINE
  5
102
100
AcDbEntity
  8
Layer_1
 62
7
100
AcDbSpline
 70
8
 71
3
 72
8
 73
4
 74
0
 40
0
 40
0
 40
0
 40
0
 40
1
 40
1
 40
1
 40
1
 10
46.351693
 20
176.463350
 30
0.0
 10
46.351693
 20
176.168330
 30
0.0
 10
46.460214
 20
175.916520
 30
0.0
 10
46.677254
 20
175.707920
 30
0.0
  0
SPLINE
  5
103
100
AcDbEntity
  8
Layer_1
 62
7
100
AcDbSpline
 70
8
 71
3
 72
8
 73
4
 74
0
 40
0
 40
0
 40
0
 40
0
 40
1
 40
1
 40
1
 40
1
 10
46.677254
 20
175.707920
 30
0.0
 10
46.894295
 20
175.499310
 30
0.0
 10
47.156295
 20
175.395020
 30
0.0
 10
47.463253
 20
175.395020
 30
0.0
  0
SPLINE
  5
104
100
AcDbEntity
  8
Layer_1
 62
7
100
AcDbSpline
 70
8
 71
3
 72
8
 73
4
 74
0
 40
0
 40
0
 40
0
 40
0
 40
1
 40
1
 40
1
 40
1
 10
47.463253
 20
175.395020
 30
0.0
 10
47.772278
 20
175.395020
 30
0.0
 10
48.034794
 20
175.498820
 30
0.0
 10
48.250802
 20
175.706430
 30
0.0
  0
SPLINE
  5
105
100
AcDbEntity
  8
Layer_1
 62
7
100
AcDbSpline
 70
8
 71
3
 72
8
 73
4
 74
0
 40
0
 40
0
 40
0
 40
0
 40
1
 40
1
 40
1
 40
1
 10
48.250802
 20
175.706430
 30
0.0
 10
48.466809
 20
175.914040
 30
0.0
 10
48.574813
 20
176.166350
 30
0.0
 10
48.574813
 20
176.463350
 30
0.0
  0
SPLINE
  5
106
100
AcDbEntity
  8
Layer_1
 62
7
100
AcDbSpline
 70
8
 71
3
 72
8
 73
4
 74
0
 40
0
 40
0
 40
0
 40
0
 40
1
 40
1
 40
1
 40
1
 10
48.574813
 20
176.463350
 30
0.0
 10
48.574813
 20
176.755390
 30
0.0
 10
48.467326
 20
177.006200
 30
0.0
 10
48.252352
 20
177.215800
 30
0.0
  0
SPLINE
  5
107
100
AcDbEntity
  8
Layer_1
 62
7
100
AcDbSpline
 70
8
 71
3
 72
8
 73
4
 74
0
 40
0
 40
0
 40
0
 40
0
 40
1
 40
1
 40
1
 40
1
 10
48.252352
 20
177.215800
 30
0.0
 10
48.038411
 20
177.425380
 30
0.0
 10
47.781579
 20
177.530180
 30
0.0
 10
47.481856
 20
177.530180
 30
0.0
  0
SPLINE
  5
108
100
AcDbEntity
  8
Layer_1
 62
7
100
AcDbSpline
 70
8
 71
3
 72
8
 73
4
 74
0
 40
0
 40
0
 40
0
 40
0
 40
1
 40
1
 40
1
 40
1
 10
47.463256
 20
176.931200
 30
0.0
 10
47.593480
 20
176.931200
 30
0.0
 10
47.703552
 20
176.885500
 30
0.0
 10
47.793468
 20
176.794120
 30
0.0
  0
SPLINE
  5
109
100
AcDbEntity
  8
Layer_1
 62
7
100
AcDbSpline
 70
8
 71
3
 72
8
 73
4
 74
0
 40
0
 40
0
 40
0
 40
0
 40
1
 40
1
 40
1
 40
1
 10
47.793468
 20
176.794120
 30
0.0
 10
47.884418
 20
176.703720
 30
0.0
 10
47.929894
 20
176.593470
 30
0.0
 10
47.929894
 20
176.463350
 30
0.0
  0
SPLINE
  5
10a
100
AcDbEntity
  8
Layer_1
 62
7
100
AcDbSpline
 70
8
 71
3
 72
8
 73
4
 74
0
 40
0
 40
0
 40
0
 40
0
 40
1
 40
1
 40
1
 40
1
 10
47.929894
 20
176.463350
 30
0.0
 10
47.929894
 20
176.333220
 30
0.0
 10
47.884424
 20
176.222460
 30
0.0
 10
47.793468
 20
176.131070
 30
0.0
  0
SPLINE
  5
10b
100
AcDbEntity
  8
Layer_1
 62
7
100
AcDbSpline
 70
8
 71
3
 72
8
 73
4
 74
0
 40
0
 40
0
 40
0
 40
0
 40
1
 40
1
 40
1
 40
1
 10
47.793468
 20
176.131070
 30
0.0
 10
47.703548
 20
176.040670
 30
0.0
 10
47.593480
 20
175.995490
 30
0.0
 10
47.463256
 20
175.995490
 30
0.0
  0
SPLINE
  5
10c
100
AcDbEntity
  8
Layer_1
 62
7
100
AcDbSpline
 70
8
 71
3
 72
8
 73
4
 74
0
 40
0
 40
0
 40
0
 40
0
 40
1
 40
1
 40
1
 40
1
 10
47.463256
 20
175.995490
 30
0.0
 10
47.335099
 20
175.995490
 30
0.0
 10
47.225027
 20
176.041190
 30
0.0
 10
47.133043
 20
176.132560
 30
0.0
  0
SPLINE
  5
10d
100
AcDbEntity
  8
Layer_1
 62
7
100
AcDbSpline
 70
8
 71
3
 72
8
 73
4
 74
0
 40
0
 40
0
 40
0
 40
0
 40
1
 40
1
 40
1
 40
1
 10
47.133043
 20
176.132560
 30
0.0
 10
47.042093
 20
176.223960
 30
0.0
 10
46.996618
 20
176.334220
 30
0.0
 10
46.996618
 20
176.463350
 30
0.0
  0
SPLINE
  5
10e
100
AcDbEntity
  8
Layer_1
 62
7
100
AcDbSpline
 70
8
 71
3
 72
8
 73
4
 74
0
 40
0
 40
0
 40
0
 40
0
 40
1
 40
1
 40
1
 40
1
 10
46.996618
 20
176.463350
 30
0.0
 10
46.996618
 20
176.592480
 30
0.0
 10
47.042098
 20
176.702740
 30
0.0
 10
47.133043
 20
176.794120
 30
0.0
  0
SPLINE
  5
10f
100
AcDbEntity
  8
Layer_1
 62
7
100
AcDbSpline
 70
8
 71
3
 72
8
 73
4
 74
0
 40
0
 40
0
 40
0
 40
0
 40
1
 40
1
 40
1
 40
1
 10
47.133043
 20
176.794120
 30
0.0
 10
47.223993
 20
176.885520
 30
0.0
 10
47.334065
 20
176.931200
 30
0.0
 10
47.463256
 20
176.931200
 30
0.0
  0
LWPOLYLINE
  5
110
100
AcDbEntity
  8
Layer_1
 62
7
100
AcDbPolyline
 90
1
 70
1
 10
47.481856
 20
177.530180
 30
0.0
  0
SPLINE
  5
111
100
AcDbEntity
  8
Layer_1
 62
7
100
AcDbSpline
 70
8
 71
3
 72
8
 73
4
 74
0
 40
0
 40
0
 40
0
 40
0
 40
1
 40
1
 40
1
 40
1
 10
48.931438
 20
176.142410
 30
0.0
 10
49.032724
 20
176.142410
 30
0.0
 10
49.119540
 20
176.105720
 30
0.0
 10
49.191887
 20
176.032340
 30
0.0
  0
SPLINE
  5
112
100
AcDbEntity
  8
Layer_1
 62
7
100
AcDbSpline
 70
8
 71
3
 72
8
 73
4
 74
0
 40
0
 40
0
 40
0
 40
0
 40
1
 40
1
 40
1
 40
1
 10
49.191887
 20
176.032340
 30
0.0
 10
49.265268
 20
175.958960
 30
0.0
 10
49.301958
 20
175.871627
 30
0.0
 10
49.301958
 20
175.770340
 30
0.0
  0
SPLINE
  5
113
100
AcDbEntity
  8
Layer_1
 62
7
100
AcDbSpline
 70
8
 71
3
 72
8
 73
4
 74
0
 40
0
 40
0
 40
0
 40
0
 40
1
 40
1
 40
1
 40
1
 10
49.301958
 20
175.770340
 30
0.0
 10
49.301958
 20
175.669060
 30
0.0
 10
49.265785
 20
175.582763
 30
0.0
 10
49.193438
 20
175.511450
 30
0.0
  0
SPLINE
  5
114
100
AcDbEntity
  8
Layer_1
 62
7
100
AcDbSpline
 70
8
 71
3
 72
8
 73
4
 74
0
 40
0
 40
0
 40
0
 40
0
 40
1
 40
1
 40
1
 40
1
 10
49.193438
 20
175.511450
 30
0.0
 10
49.121091
 20
175.441170
 30
0.0
 10
49.033757
 20
175.406030
 30
0.0
 10
48.931438
 20
175.406030
 30
0.0
  0
SPLINE
  5
115
100
AcDbEntity
  8
Layer_1
 62
7
100
AcDbSpline
 70
8
 71
3
 72
8
 73
4
 74
0
 40
0
 40
0
 40
0
 40
0
 40
1
 40
1
 40
1
 40
1
 10
48.931438
 20
175.406030
 30
0.0
 10
48.824985
 20
175.406030
 30
0.0
 10
48.737135
 20
175.440137
 30
0.0
 10
48.667888
 20
175.508350
 30
0.0
  0
SPLINE
  5
116
100
AcDbEntity
  8
Layer_1
 62
7
100
AcDbSpline
 70
8
 71
3
 72
8
 73
4
 74
0
 40
0
 40
0
 40
0
 40
0
 40
1
 40
1
 40
1
 40
1
 10
48.667888
 20
175.508350
 30
0.0
 10
48.599675
 20
175.577590
 30
0.0
 10
48.565569
 20
175.665437
 30
0.0
 10
48.565569
 20
175.771890
 30
0.0
  0
SPLINE
  5
117
100
AcDbEntity
  8
Layer_1
 62
7
100
AcDbSpline
 70
8
 71
3
 72
8
 73
4
 74
0
 40
0
 40
0
 40
0
 40
0
 40
1
 40
1
 40
1
 40
1
 10
48.565569
 20
175.771890
 30
0.0
 10
48.565569
 20
175.875243
 30
0.0
 10
48.601226
 20
175.962577
 30
0.0
 10
48.672539
 20
176.033890
 30
0.0
  0
SPLINE
  5
118
100
AcDbEntity
  8
Layer_1
 62
7
100
AcDbSpline
 70
8
 71
3
 72
8
 73
4
 74
0
 40
0
 40
0
 40
0
 40
0
 40
1
 40
1
 40
1
 40
1
 10
48.672539
 20
176.033890
 30
0.0
 10
48.743852
 20
176.106237
 30
0.0
 10
48.830152
 20
176.142410
 30
0.0
 10
48.931438
 20
176.142410
 30
0.0
  0
LWPOLYLINE
  5
119
100
AcDbEntity
  8
Layer_1
 62
7
100
AcDbPolyline
 90
1
 70
1
 10
47.463256
 20
176.931200
 30
0.0
  0
LWPOLYLINE
  5
11a
100
AcDbEntity
  8
Layer_1
 62
7
100
AcDbPolyline
 90
1
 70
1
 10
48.931438
 20
176.142410
 30
0.0
  0
SPLINE
  5
11b
100
AcDbEntity
  8
Layer_1
 62
7
100
AcDbSpline
 70
8
 71
3
 72
8
 73
4
 74
0
 40
0
 40
0
 40
0
 40
0
 40
1
 40
1
 40
1
 40
1
 10
44.060933
 20
176.911980
 30
0.0
 10
44.060933
 20
177.093767
 30
0.0
 10
44.118294
 20
177.242270
 30
0.0
 10
44.233015
 20
177.357490
 30
0.0
  0
SPLINE
  5
11c
100
AcDbEntity
  8
Layer_1
 62
7
100
AcDbSpline
 70
8
 71
3
 72
8
 73
4
 74
0
 40
0
 40
0
 40
0
 40
0
 40
1
 40
1
 40
1
 40
1
 10
44.233015
 20
177.357490
 30
0.0
 10
44.347737
 20
177.472717
 30
0.0
 10
44.496565
 20
177.530330
 30
0.0
 10
44.679499
 20
177.530330
 30
0.0
  0
SPLINE
  5
11d
100
AcDbEntity
  8
Layer_1
 62
7
100
AcDbSpline
 70
8
 71
3
 72
8
 73
4
 74
0
 40
0
 40
0
 40
0
 40
0
 40
1
 40
1
 40
1
 40
1
 10
44.679499
 20
177.530330
 30
0.0
 10
44.896540
 20
177.530330
 30
0.0
 10
45.063455
 20
177.434473
 30
0.0
 10
45.180244
 20
177.242760
 30
0.0
  0
SPLINE
  5
11e
100
AcDbEntity
  8
Layer_1
 62
7
100
AcDbSpline
 70
8
 71
3
 72
8
 73
4
 74
0
 40
0
 40
0
 40
0
 40
0
 40
1
 40
1
 40
1
 40
1
 10
45.180244
 20
177.242760
 30
0.0
 10
45.251557
 20
177.346067
 30
0.0
 10
45.328038
 20
177.419573
 30
0.0
 10
45.409687
 20
177.463280
 30
0.0
  0
SPLINE
  5
11f
100
AcDbEntity
  8
Layer_1
 62
7
100
AcDbSpline
 70
8
 71
3
 72
8
 73
4
 74
0
 40
0
 40
0
 40
0
 40
0
 40
1
 40
1
 40
1
 40
1
 10
45.409687
 20
177.463280
 30
0.0
 10
45.491336
 20
177.508013
 30
0.0
 10
45.592106
 20
177.530380
 30
0.0
 10
45.711995
 20
177.530380
 30
0.0
  0
SPLINE
  5
120
100
AcDbEntity
  8
Layer_1
 62
7
100
AcDbSpline
 70
8
 71
3
 72
8
 73
4
 74
0
 40
0
 40
0
 40
0
 40
0
 40
1
 40
1
 40
1
 40
1
 10
45.711995
 20
177.530380
 30
0.0
 10
45.902164
 20
177.530380
 30
0.0
 10
46.047891
 20
177.472770
 30
0.0
 10
46.149177
 20
177.357550
 30
0.0
  0
SPLINE
  5
121
100
AcDbEntity
  8
Layer_1
 62
7
100
AcDbSpline
 70
8
 71
3
 72
8
 73
4
 74
0
 40
0
 40
0
 40
0
 40
0
 40
1
 40
1
 40
1
 40
1
 10
46.149177
 20
177.357550
 30
0.0
 10
46.250463
 20
177.242323
 30
0.0
 10
46.301106
 20
177.076437
 30
0.0
 10
46.301106
 20
176.859890
 30
0.0
  0
LWPOLYLINE
  5
122
100
AcDbEntity
  8
Layer_1
 62
7
100
AcDbPolyline
 90
2
 70
0
 10
44.060933
 20
175.445820
 30
0.0
 10
44.060933
 20
176.911980
 30
0.0
  0
SPLINE
  5
123
100
AcDbEntity
  8
Layer_1
 62
7
100
AcDbSpline
 70
8
 71
3
 72
8
 73
4
 74
0
 40
0
 40
0
 40
0
 40
0
 40
1
 40
1
 40
1
 40
1
 10
45.671687
 20
176.769000
 30
0.0
 10
45.671687
 20
176.834533
 30
0.0
 10
45.666004
 20
176.877743
 30
0.0
 10
45.654637
 20
176.898630
 30
0.0
  0
SPLINE
  5
124
100
AcDbEntity
  8
Layer_1
 62
7
100
AcDbSpline
 70
8
 71
3
 72
8
 73
4
 74
0
 40
0
 40
0
 40
0
 40
0
 40
1
 40
1
 40
1
 40
1
 10
45.654637
 20
176.898630
 30
0.0
 10
45.644304
 20
176.920497
 30
0.0
 10
45.622600
 20
176.931430
 30
0.0
 10
45.589527
 20
176.931430
 30
0.0
  0
SPLINE
  5
125
100
AcDbEntity
  8
Layer_1
 62
7
100
AcDbSpline
 70
8
 71
3
 72
8
 73
4
 74
0
 40
0
 40
0
 40
0
 40
0
 40
1
 40
1
 40
1
 40
1
 10
45.589527
 20
176.931430
 30
0.0
 10
45.527514
 20
176.931430
 30
0.0
 10
45.496507
 20
176.880773
 30
0.0
 10
45.496507
 20
176.779460
 30
0.0
  0
LWPOLYLINE
  5
126
100
AcDbEntity
  8
Layer_1
 62
7
100
AcDbPolyline
 90
4
 70
0
 10
46.301106
 20
176.859890
 30
0.0
 10
46.301106
 20
175.445880
 30
0.0
 10
45.671687
 20
175.445880
 30
0.0
 10
45.671687
 20
176.769000
 30
0.0
  0
SPLINE
  5
127
100
AcDbEntity
  8
Layer_1
 62
7
100
AcDbSpline
 70
8
 71
3
 72
8
 73
4
 74
0
 40
0
 40
0
 40
0
 40
0
 40
1
 40
1
 40
1
 40
1
 10
44.867088
 20
176.769020
 30
0.0
 10
44.867088
 20
176.833620
 30
0.0
 10
44.861405
 20
176.876830
 30
0.0
 10
44.850038
 20
176.898650
 30
0.0
  0
SPLINE
  5
128
100
AcDbEntity
  8
Layer_1
 62
7
100
AcDbSpline
 70
8
 71
3
 72
8
 73
4
 74
0
 40
0
 40
0
 40
0
 40
0
 40
1
 40
1
 40
1
 40
1
 10
44.850038
 20
176.898650
 30
0.0
 10
44.838671
 20
176.920517
 30
0.0
 10
44.816451
 20
176.931450
 30
0.0
 10
44.783378
 20
176.931450
 30
0.0
  0
SPLINE
  5
129
100
AcDbEntity
  8
Layer_1
 62
7
100
AcDbSpline
 70
8
 71
3
 72
8
 73
4
 74
0
 40
0
 40
0
 40
0
 40
0
 40
1
 40
1
 40
1
 40
1
 10
44.783378
 20
176.931450
 30
0.0
 10
44.721365
 20
176.931450
 30
0.0
 10
44.690358
 20
176.877310
 30
0.0
 10
44.690358
 20
176.769030
 30
0.0
  0
LWPOLYLINE
  5
12a
100
AcDbEntity
  8
Layer_1
 62
7
100
AcDbPolyline
 90
4
 70
0
 10
45.496507
 20
176.779460
 30
0.0
 10
45.496507
 20
175.445900
 30
0.0
 10
44.867088
 20
175.445900
 30
0.0
 10
44.867088
 20
176.769020
 30
0.0
  0
LWPOLYLINE
  5
12b
100
AcDbEntity
  8
Layer_1
 62
7
100
AcDbPolyline
 90
3
 70
0
 10
44.690358
 20
176.769030
 30
0.0
 10
44.690358
 20
175.445910
 30
0.0
 10
44.060933
 20
175.445820
 30
0.0
  0
SPLINE
  5
12c
100
AcDbEntity
  8
Layer_1
 62
7
100
AcDbSpline
 70
8
 71
3
 72
8
 73
4
 74
0
 40
0
 40
0
 40
0
 40
0
 40
1
 40
1
 40
1
 40
1
 10
43.495716
 20
176.235530
 30
0.0
 10
43.439903
 20
176.235530
 30
0.0
 10
43.400112
 20
176.227597
 30
0.0
 10
43.376344
 20
176.211730
 30
0.0
  0
SPLINE
  5
12d
100
AcDbEntity
  8
Layer_1
 62
7
100
AcDbSpline
 70
8
 71
3
 72
8
 73
4
 74
0
 40
0
 40
0
 40
0
 40
0
 40
1
 40
1
 40
1
 40
1
 10
43.376344
 20
176.211730
 30
0.0
 10
43.353604
 20
176.195863
 30
0.0
 10
43.342234
 20
176.169063
 30
0.0
 10
43.342234
 20
176.131330
 30
0.0
  0
SPLINE
  5
12e
100
AcDbEntity
  8
Layer_1
 62
7
100
AcDbSpline
 70
8
 71
3
 72
8
 73
4
 74
0
 40
0
 40
0
 40
0
 40
0
 40
1
 40
1
 40
1
 40
1
 10
43.342234
 20
176.131330
 30
0.0
 10
43.342234
 20
176.088597
 30
0.0
 10
43.354121
 20
176.060263
 30
0.0
 10
43.377894
 20
176.046330
 30
0.0
  0
SPLINE
  5
12f
100
AcDbEntity
  8
Layer_1
 62
7
100
AcDbSpline
 70
8
 71
3
 72
8
 73
4
 74
0
 40
0
 40
0
 40
0
 40
0
 40
1
 40
1
 40
1
 40
1
 10
43.377894
 20
176.046330
 30
0.0
 10
43.401667
 20
176.033397
 30
0.0
 10
43.450243
 20
176.026930
 30
0.0
 10
43.523622
 20
176.026930
 30
0.0
  0
LWPOLYLINE
  5
130
100
AcDbEntity
  8
Layer_1
 62
7
100
AcDbPolyline
 90
3
 70
0
 10
43.906544
 20
176.688480
 30
0.0
 10
43.906544
 20
176.235530
 30
0.0
 10
43.495716
 20
176.235530
 30
0.0
  0
SPLINE
  5
131
100
AcDbEntity
  8
Layer_1
 62
7
100
AcDbSpline
 70
8
 71
3
 72
8
 73
4
 74
0
 40
0
 40
0
 40
0
 40
0
 40
1
 40
1
 40
1
 40
1
 10
43.452308
 20
175.445830
 30
0.0
 10
43.219764
 20
175.445830
 30
0.0
 10
43.041997
 20
175.498970
 30
0.0
 10
42.919007
 20
175.605250
 30
0.0
  0
SPLINE
  5
132
100
AcDbEntity
  8
Layer_1
 62
7
100
AcDbSpline
 70
8
 71
3
 72
8
 73
4
 74
0
 40
0
 40
0
 40
0
 40
0
 40
1
 40
1
 40
1
 40
1
 10
42.919007
 20
175.605250
 30
0.0
 10
42.796017
 20
175.712537
 30
0.0
 10
42.734522
 20
175.867003
 30
0.0
 10
42.734522
 20
176.068650
 30
0.0
  0
LWPOLYLINE
  5
133
100
AcDbEntity
  8
Layer_1
 62
7
100
AcDbPolyline
 90
4
 70
0
 10
43.523622
 20
176.026930
 30
0.0
 10
43.946852
 20
176.026930
 30
0.0
 10
43.946852
 20
175.445830
 30
0.0
 10
43.452308
 20
175.445830
 30
0.0
  0
SPLINE
  5
134
100
AcDbEntity
  8
Layer_1
 62
7
100
AcDbSpline
 70
8
 71
3
 72
8
 73
4
 74
0
 40
0
 40
0
 40
0
 40
0
 40
1
 40
1
 40
1
 40
1
 10
42.734522
 20
176.865790
 30
0.0
 10
42.734522
 20
177.060483
 30
0.0
 10
42.792400
 20
177.211470
 30
0.0
 10
42.908155
 20
177.318750
 30
0.0
  0
SPLINE
  5
135
100
AcDbEntity
  8
Layer_1
 62
7
100
AcDbSpline
 70
8
 71
3
 72
8
 73
4
 74
0
 40
0
 40
0
 40
0
 40
0
 40
1
 40
1
 40
1
 40
1
 10
42.908155
 20
177.318750
 30
0.0
 10
43.024944
 20
177.426030
 30
0.0
 10
43.188758
 20
177.479670
 30
0.0
 10
43.399598
 20
177.479670
 30
0.0
  0
LWPOLYLINE
  5
136
100
AcDbEntity
  8
Layer_1
 62
7
100
AcDbPolyline
 90
2
 70
0
 10
42.734522
 20
176.068650
 30
0.0
 10
42.734522
 20
176.865790
 30
0.0
  0
SPLINE
  5
137
100
AcDbEntity
  8
Layer_1
 62
7
100
AcDbSpline
 70
8
 71
3
 72
8
 73
4
 74
0
 40
0
 40
0
 40
0
 40
0
 40
1
 40
1
 40
1
 40
1
 10
43.545326
 20
176.895600
 30
0.0
 10
43.436805
 20
176.895600
 30
0.0
 10
43.382545
 20
176.861827
 30
0.0
 10
43.382545
 20
176.794280
 30
0.0
  0
SPLINE
  5
138
100
AcDbEntity
  8
Layer_1
 62
7
100
AcDbSpline
 70
8
 71
3
 72
8
 73
4
 74
0
 40
0
 40
0
 40
0
 40
0
 40
1
 40
1
 40
1
 40
1
 10
43.382545
 20
176.794280
 30
0.0
 10
43.382545
 20
176.754547
 30
0.0
 10
43.395465
 20
176.726747
 30
0.0
 10
43.421305
 20
176.710880
 30
0.0
  0
SPLINE
  5
139
100
AcDbEntity
  8
Layer_1
 62
7
100
AcDbSpline
 70
8
 71
3
 72
8
 73
4
 74
0
 40
0
 40
0
 40
0
 40
0
 40
1
 40
1
 40
1
 40
1
 10
43.421305
 20
176.710880
 30
0.0
 10
43.447145
 20
176.695947
 30
0.0
 10
43.493137
 20
176.688480
 30
0.0
 10
43.559281
 20
176.688480
 30
0.0
  0
LWPOLYLINE
  5
13a
100
AcDbEntity
  8
Layer_1
 62
7
100
AcDbPolyline
 90
4
 70
0
 10
43.399598
 20
177.479670
 30
0.0
 10
43.946852
 20
177.479670
 30
0.0
 10
43.946852
 20
176.895600
 30
0.0
 10
43.545326
 20
176.895600
 30
0.0
  0
LWPOLYLINE
  5
13b
100
AcDbEntity
  8
Layer_1
 62
7
100
AcDbPolyline
 90
2
 70
0
 10
43.559281
 20
176.688480
 30
0.0
 10
43.906544
 20
176.688480
 30
0.0
  0
SPLINE
  5
13c
100
AcDbEntity
  8
Layer_1
 62
7
100
AcDbSpline
 70
8
 71
3
 72
8
 73
4
 74
0
 40
0
 40
0
 40
0
 40
0
 40
1
 40
1
 40
1
 40
1
 10
41.068598
 20
176.765960
 30
0.0
 10
41.068598
 20
176.997407
 30
0.0
 10
41.140428
 20
177.182663
 30
0.0
 10
41.284089
 20
177.321730
 30
0.0
  0
SPLINE
  5
13d
100
AcDbEntity
  8
Layer_1
 62
7
100
AcDbSpline
 70
8
 71
3
 72
8
 73
4
 74
0
 40
0
 40
0
 40
0
 40
0
 40
1
 40
1
 40
1
 40
1
 10
41.284089
 20
177.321730
 30
0.0
 10
41.428783
 20
177.460797
 30
0.0
 10
41.621019
 20
177.530330
 30
0.0
 10
41.860798
 20
177.530330
 30
0.0
  0
SPLINE
  5
13e
100
AcDbEntity
  8
Layer_1
 62
7
100
AcDbSpline
 70
8
 71
3
 72
8
 73
4
 74
0
 40
0
 40
0
 40
0
 40
0
 40
1
 40
1
 40
1
 40
1
 10
41.860798
 20
177.530330
 30
0.0
 10
42.099543
 20
177.530330
 30
0.0
 10
42.281961
 20
177.462783
 30
0.0
 10
42.408051
 20
177.327690
 30
0.0
  0
SPLINE
  5
13f
100
AcDbEntity
  8
Layer_1
 62
7
100
AcDbSpline
 70
8
 71
3
 72
8
 73
4
 74
0
 40
0
 40
0
 40
0
 40
0
 40
1
 40
1
 40
1
 40
1
 10
42.408051
 20
177.327690
 30
0.0
 10
42.535175
 20
177.192597
 30
0.0
 10
42.598737
 20
176.998400
 30
0.0
 10
42.598737
 20
176.745100
 30
0.0
  0
LWPOLYLINE
  5
140
100
AcDbEntity
  8
Layer_1
 62
7
100
AcDbPolyline
 90
2
 70
0
 10
41.068598
 20
175.445820
 30
0.0
 10
41.068598
 20
176.765960
 30
0.0
  0
SPLINE
  5
141
100
AcDbEntity
  8
Layer_1
 62
7
100
AcDbSpline
 70
8
 71
3
 72
8
 73
4
 74
0
 40
0
 40
0
 40
0
 40
0
 40
1
 40
1
 40
1
 40
1
 10
41.969318
 20
176.745100
 30
0.0
 10
41.969318
 20
176.869273
 30
0.0
 10
41.923326
 20
176.931360
 30
0.0
 10
41.831342
 20
176.931360
 30
0.0
  0
SPLINE
  5
142
100
AcDbEntity
  8
Layer_1
 62
7
100
AcDbSpline
 70
8
 71
3
 72
8
 73
4
 74
0
 40
0
 40
0
 40
0
 40
0
 40
1
 40
1
 40
1
 40
1
 10
41.831342
 20
176.931360
 30
0.0
 10
41.742459
 20
176.931360
 30
0.0
 10
41.698017
 20
176.869273
 30
0.0
 10
41.698017
 20
176.745100
 30
0.0
  0
LWPOLYLINE
  5
143
100
AcDbEntity
  8
Layer_1
 62
7
100
AcDbPolyline
 90
4
 70
0
 10
42.598737
 20
176.745100
 30
0.0
 10
42.598737
 20
175.445820
 30
0.0
 10
41.969318
 20
175.445820
 30
0.0
 10
41.969318
 20
176.745100
 30
0.0
  0
LWPOLYLINE
  5
144
100
AcDbEntity
  8
Layer_1
 62
7
100
AcDbPolyline
 90
3
 70
0
 10
41.698017
 20
176.745100
 30
0.0
 10
41.698017
 20
175.445820
 30
0.0
 10
41.068598
 20
175.445820
 30
0.0
  0
LWPOLYLINE
  5
145
100
AcDbEntity
  8
Layer_1
 62
7
100
AcDbPolyline
 90
8
 70
1
 10
41.157162
 20
175.242290
 30
0.0
 10
48.455910
 20
175.242290
 30
0.0
 10
48.455910
 20
175.080150
 30
0.0
 10
41.594037
 20
175.084150
 30
0.0
 10
41.594037
 20
174.731490
 30
0.0
 10
49.193102
 20
174.706590
 30
0.0
 10
49.193102
 20
174.548960
 30
0.0
 10
41.157162
 20
174.548960
 30
0.0
  0
ENDSEC
  0
SECTION
  2
OBJECTS
  0
DICTIONARY
  5
C
330
0
100
AcDbDictionary
  3
ACAD_GROUP
350
D
  3
ACAD_MLINESTYLE
350
17
  0
DICTIONARY
  5
D
330
C
100
AcDbDictionary
  0
DICTIONARY
  5
1A
330
C
100
AcDbDictionary
  0
DICTIONARY
  5
17
330
C
100
AcDbDictionary
  3
STANDARD
350
18
  0
DICTIONARY
  5
19
330
C
100
AcDbDictionary
  0
ENDSEC
  0
EOF
